<svg xmlns="http://www.w3.org/2000/svg" width="1649.785" height="595.144" viewBox="0 0 1649.785 595.144">
  <g id="Group_68" data-name="Group 68" transform="translate(-375.828 -383.273)">
    <path id="Path_1" data-name="Path 1" d="M1356.524,611.691c-4.6-121.539-106.6-215.9-228.343-214.768-68.963.645-126.712,27.362-174.386,78.828a227.572,227.572,0,0,0-174.689-78.828c-69.8.645-128.165,27.916-176.172,80.622-42.268-44.184-90.264-74.34-153.63-78.192V504.2c71.576,24.719,99.835,64.476,99.885,139.521.02,35.631-.857,71.293.262,106.895,1.886,60.33,48.844,105.372,107.258,102.366V734.571c-.01-34.643-.212-69.286.01-103.93.453-70.537,54.017-126.733,121.508-127.761a117.061,117.061,0,0,1,21.109,1.7c70.809,24.75,98.867,64.456,98.918,139.138.03,35.631-.848,71.293.262,106.895,1.714,54.592,40.442,96.285,91.061,101.559a147.836,147.836,0,0,0,18.456,2.31c0-81.016,2.471-162.012-.585-242.8,0-.121-.02-.242-.03-.363,9.1-61.188,58.687-107.51,119.875-108.448,64.647-.979,120.369,51.688,123.666,119.33,2.27,46.4-.968,93.158,2.713,139.4,4.377,55.066,44.275,89.619,103.426,92.876C1357.1,773.471,1359.581,692.475,1356.524,611.691Z" transform="translate(667.564 123.924)"/>
    <path id="Path_2" data-name="Path 2" d="M649.62,877.92v96.245c-46.776,9.45-86.028-9.228-122.184-32.344C465.33,902.095,428.509,843.257,426.4,769.795c-3.54-123.475-1.463-247.112-1.563-370.688,0-4.73,1.846-9.46,3.167-15.8,36.822-.837,65.777,15.955,81.53,45.2,14.371,26.666,18.628,58.778,28.592,92.715h111.03V626.441c-31.749,0-62.106.948-92.362-.333-20.161-.858-28.713,5.607-27.775,26.686,1.311,29.6.161,59.312.494,88.963.786,70.255,33.392,111.938,101.378,130.213C636.59,873.5,642.157,875.53,649.62,877.92Z" transform="translate(440.593 0)"/>
    <path id="Path_3" data-name="Path 3" d="M607.306,520.867c-.222,0-.424-.03-.635-.03-2.542,0-44.679.383-62.691.383H489.6c-9.954-33.947-14.221-66.049-28.582-92.715-15.763-29.248-44.708-46.04-81.53-45.2-1.321,6.344-3.177,11.074-3.167,15.8.041,52.04-.272,104.091-.424,156.132-.2,71.546-.07,143.081,1.977,214.556,2.108,73.462,38.94,132.3,101.045,172.026,2.1,1.341,4.246,2.6,6.374,3.913,28.178,17.377,55.62,27.442,92.513,31.638,9.44,1.19,19.091,1.039,28.864,1.039A227.52,227.52,0,0,0,747.179,929.92c53.644-41.874,88.278-106.965,88.278-180.3C835.457,623.486,733.362,521.22,607.306,520.867ZM730.851,761.4A124.584,124.584,0,0,1,533.732,850.73c-22.581-14.987-37.527-35.511-45.454-61.863-.867-2.612-1.594-5.3-2.289-7.978-.192-.837-.5-1.584-.686-2.42-.06-.273-.091-.565-.151-.827a124.97,124.97,0,0,1-2.622-15.27,126.837,126.837,0,0,1-.645-12.748A124.615,124.615,0,0,1,600.629,625.15c2.017-.1,4-.3,6.041-.3A124.774,124.774,0,0,1,731.446,749.624C731.446,753.608,731.214,757.531,730.851,761.4Z" transform="translate(0 0)"/>
  </g>
</svg>
